HIERARCHY
ROOT Hips
{
	OFFSET	0.00	0.00	0.00
	CHANNELS 6 Xposition Yposition Zposition Zrotation Xrotation Yrotation
	JOINT LeftUpLeg
	{
		OFFSET	 0.126116	-0.065224	 0.014019
		CHANNELS 3 Zrotation Xrotation Yrotation
		JOINT LeftLeg
		{
			OFFSET	 0.000000	 0.569914	 0.000000
			CHANNELS 3 Zrotation Xrotation Yrotation
			JOINT LeftFoot
			{
				OFFSET	 0.000000	 0.544423	 0.000000
				CHANNELS 3 Zrotation Xrotation Yrotation
				JOINT LeftToeBase
				{
					OFFSET	 0.000000	 0.207117	 0.000000
					CHANNELS 3 Zrotation Xrotation Yrotation
					End Site
					{
						OFFSET	 0.000000	 0.207117	 0.000000
					}
				}
			}
		}
	}
	JOINT RightUpLeg
	{
		OFFSET	-0.124023	-0.065224	 0.008373
		CHANNELS 3 Zrotation Xrotation Yrotation
		JOINT RightLeg
		{
			OFFSET	 0.000000	 0.570047	 0.000000
			CHANNELS 3 Zrotation Xrotation Yrotation
			JOINT RightFoot
			{
				OFFSET	 0.000000	 0.544354	 0.000000
				CHANNELS 3 Zrotation Xrotation Yrotation
				JOINT RightToeBase
				{
					OFFSET	 0.000000	 0.207540	 0.000000
					CHANNELS 3 Zrotation Xrotation Yrotation
					End Site
					{
						OFFSET	 0.000000	 0.207540	 0.000000
					}
				}
			}
		}
	}
	JOINT Spine
	{
		OFFSET	 0.000184	 0.117403	 0.007763
		CHANNELS 3 Zrotation Xrotation Yrotation
		JOINT Spine1
		{
			OFFSET	 0.000000	 0.137269	 0.000000
			CHANNELS 3 Zrotation Xrotation Yrotation
			JOINT Spine2
			{
				OFFSET	 0.000000	 0.156879	 0.000000
				CHANNELS 3 Zrotation Xrotation Yrotation
				JOINT LeftShoulder
				{
					OFFSET	 0.080501	 0.160143	 0.002496
					CHANNELS 3 Zrotation Xrotation Yrotation
					JOINT LeftArm
					{
						OFFSET	 0.000000	 0.164363	 0.000000
						CHANNELS 3 Zrotation Xrotation Yrotation
						JOINT LeftForeArm
						{
							OFFSET	 0.000000	 0.364576	 0.000000
							CHANNELS 3 Zrotation Xrotation Yrotation
							JOINT LeftHand
							{
								OFFSET	 0.000000	 0.360812	 0.000000
								CHANNELS 3 Zrotation Xrotation Yrotation
								JOINT LeftHandIndex1
								{
									OFFSET	 0.000000	 0.086006	 0.000000
									CHANNELS 3 Zrotation Xrotation Yrotation
									JOINT LeftHandIndex2
									{
										OFFSET	 0.000000	 0.047237	 0.000000
										CHANNELS 3 Zrotation Xrotation Yrotation
										JOINT LeftHandIndex3
										{
											OFFSET	-0.004284	 0.038165	 0.000551
											CHANNELS 3 Zrotation Xrotation Yrotation
											End Site
											{
												OFFSET	-0.004284	 0.038165	 0.000551
											}
										}
									}
								}
							}
						}
					}
				}
				JOINT Neck
				{
					OFFSET	 0.000000	 0.176489	 0.000000
					CHANNELS 3 Zrotation Xrotation Yrotation
					JOINT Head
					{
						OFFSET	 0.000000	 0.077941	 0.001747
						CHANNELS 3 Zrotation Xrotation Yrotation
						End Site
						{
							OFFSET	 0.000000	 0.077941	 0.001747
						}
					}
				}
				JOINT RightShoulder
				{
					OFFSET	-0.080363	 0.159706	-0.000306
					CHANNELS 3 Zrotation Xrotation Yrotation
					JOINT RightArm
					{
						OFFSET	 0.000000	 0.164196	 0.000000
						CHANNELS 3 Zrotation Xrotation Yrotation
						JOINT RightForeArm
						{
							OFFSET	 0.000000	 0.365611	 0.000000
							CHANNELS 3 Zrotation Xrotation Yrotation
							JOINT RightHand
							{
								OFFSET	 0.000000	 0.360648	 0.000000
								CHANNELS 3 Zrotation Xrotation Yrotation
								JOINT RightHandIndex1
								{
									OFFSET	 0.000000	 0.069977	 0.000000
									CHANNELS 3 Zrotation Xrotation Yrotation
									JOINT RightHandIndex2
									{
										OFFSET	 0.000000	 0.052305	 0.000000
										CHANNELS 3 Zrotation Xrotation Yrotation
										JOINT RightHandIndex3
										{
											OFFSET	 0.009002	 0.042196	 0.000782
											CHANNELS 3 Zrotation Xrotation Yrotation
											End Site
											{
												OFFSET	 0.009002	 0.042196	 0.000782
											}
										}
									}
								}
							}
						}
					}
				}
			}
		}
	}
}
MOTION
Frames:    9
Frame Time: 0.03333334
 0.015568	 1.268718	-0.000627	 0.330305	 1.459895	 179.525500	-177.234800	 6.065806	-13.499480	 3.405150	-16.744240	 3.981997	-3.457795	 69.873560	 3.936116	 1.331492	 28.938720	-2.729976	 178.991000	 6.823239	 18.307360	-5.318992	-17.004990	-7.440236	-1.076047	 70.793530	 1.260423	-1.294073	 28.436970	 2.764942	-0.579428	 2.236094	-3.718087	-1.423270	 4.263947	-2.074229	-1.037991	-3.224777	 5.722409	-113.440200	 5.468025	 93.043430	 9.496859	 57.516140	 32.075290	 10.216690	-0.251908	-8.236088	-4.182607	-16.087780	-29.142790	-6.580301	 5.266122	 0.000000	 0.000000	 0.000000	 0.000000	 0.000000	 0.000000	 0.000000	 5.256571	-0.274483	-0.400617	 5.126137	 1.266565	 2.849138	 114.258900	-4.684258	-88.167240	-61.151570	 31.496380	-14.849150	-107.873500	-1.935731	 5.310235	-24.509120	-1.004425	-33.119300	-0.616096	 17.740560	 0.807402	 12.167070	 16.320190	-3.631063	-8.425842	 6.952283	-0.137624
 0.017707	 1.268398	 0.001601	 0.164711	 1.486583	-179.945700	-177.389600	 6.341207	-12.904940	 3.392111	-16.683750	 4.510589	-2.045303	 69.727940	 2.397064	 1.331492	 28.938720	-2.729976	 178.856700	 7.064817	 18.994830	-5.431935	-17.343620	-7.294748	-0.738559	 70.968250	 0.786527	-1.292979	 28.424920	 2.812009	-0.598761	 2.419785	-2.414953	-1.459998	 4.124216	-1.361206	-1.139169	-2.639681	 3.838476	-113.440800	 5.346045	 93.002400	 15.702650	 57.620750	 27.104800	 10.373690	-0.256354	-8.339913	-4.060466	-15.700450	-24.421530	-6.580301	 5.266122	 0.000000	 0.000000	 0.000000	 0.000000	 0.000000	 0.000000	 0.000000	 5.022893	-0.245707	-0.495607	 5.089336	 1.091210	 2.134043	 114.247300	-4.604947	-88.217310	-45.489810	 40.520060	-26.456100	-98.729690	-2.015702	 5.764918	-21.481150	-0.426161	-32.755790	-0.693161	 19.795730	 0.832197	 12.259200	 18.329690	-4.086649	-8.440806	 7.953084	-0.200873
 0.019457	 1.267976	 0.003870	-0.028414	 1.521012	-179.380200	-177.599200	 6.639094	-12.275180	 3.381997	-16.636760	 5.074411	-0.544987	 69.564640	 0.787890	 1.331492	 28.938720	-2.729976	 178.673500	 7.333350	 19.722500	-5.572317	-17.762700	-7.148981	-0.358060	 71.189850	 0.289351	-1.291810	 28.412170	 2.861831	-0.636032	 2.622240	-0.993397	-1.452172	 3.944978	-0.634689	-1.259953	-1.987056	 1.644422	-113.441500	 5.216918	 92.958950	 22.347640	 57.251990	 21.769230	 10.522410	-0.260815	-8.433180	-3.642227	-14.691940	-19.169800	-6.580301	 5.266122	 0.000000	 0.000000	 0.000000	 0.000000	 0.000000	 0.000000	 0.000000	 4.775562	-0.214822	-0.596041	 5.051022	 0.892754	 1.328466	 114.235100	-4.520993	-88.270260	-32.867340	 45.177520	-33.314470	-80.860600	-2.010741	 6.559176	-24.083120	-0.902415	-24.926360	-0.776963	 21.971760	 0.862071	 12.376580	 20.456540	-4.578966	-8.455474	 9.012642	-0.267725
 0.020730	 1.267517	 0.006093	-0.227095	 1.569196	-178.834100	-177.830400	 6.863163	-11.669830	 3.374693	-16.602910	 5.621408	 0.888273	 69.450740	-0.742047	 1.331492	 28.938720	-2.729976	 178.442200	 7.587458	 20.418840	-5.722307	-18.208150	-7.024698	 0.029908	 71.425320	-0.166229	-1.290673	 28.399950	 2.910487	-0.681169	 2.833380	 0.275754	-1.409123	 3.659764	-0.104089	-1.379757	-1.279551	-0.675083	-113.442400	 5.090964	 92.916850	 25.808570	 56.823960	 19.181570	 10.606360	-0.262501	-8.508710	-1.762973	-13.952330	-14.230360	-6.580301	 5.266122	 0.000000	 0.000000	 0.000000	 0.000000	 0.000000	 0.000000	 0.000000	 4.531704	-0.183974	-0.694222	 5.012180	 0.682277	 0.499370	 114.223200	-4.438547	-88.322270	-31.279730	 49.504610	-31.351030	-59.169000	-1.719231	 7.432169	-25.218810	 0.391867	-11.831180	-0.860235	 24.069930	 0.894637	 12.510110	 22.506340	-5.064996	-8.468478	 10.034990	-0.332165
 0.021817	 1.266998	 0.007941	-0.230818	 1.768092	-179.615700	-177.657500	 6.745845	-12.478370	 3.413478	-16.782820	 5.198776	-0.406896	 69.444730	 0.562671	 1.331492	 28.938720	-2.729976	 178.603500	 7.786498	 19.557330	-5.848448	-18.580950	-7.904263	-2.722373	 71.556850	 2.610037	-1.291750	 28.414430	 2.921103	-0.728009	 3.050722	 1.755437	-1.350721	 3.336011	 0.691454	-1.338318	-0.514244	-2.804138	-113.443800	 5.076158	 92.931470	 24.691810	 56.704830	 20.885530	 10.596710	-0.260171	-8.565490	 0.025591	-12.666230	-8.689734	-6.580301	 5.266122	 0.000000	 0.000000	 0.000000	 0.000000	 0.000000	 0.000000	 0.000000	 4.304745	-0.157448	-0.731602	 4.867474	 0.768778	-0.065415	 114.216100	-4.389785	-88.354800	-32.485760	 50.631940	-30.119820	-46.083360	-1.406236	 7.896825	-22.700750	-6.689228	-2.656074	-0.801378	 22.593710	 0.871326	 12.414030	 21.064260	-4.721790	-8.459695	 9.334720	-0.288037
 0.022399	 1.266501	 0.009747	-0.203278	 1.963233	 179.622800	-177.473800	 6.604900	-13.257530	 3.460834	-17.002070	 4.795671	-1.629288	 69.499370	 1.796490	 1.331492	 28.938720	-2.729976	 178.756400	 7.975213	 18.722720	-5.974334	-18.951310	-8.743187	-5.305455	 71.646640	 5.246433	-1.292794	 28.428420	 2.931359	-0.741274	 3.257704	 2.956127	-1.279161	 2.932954	 1.232386	-1.286662	 0.251740	-4.863834	-113.445200	 5.061893	 92.945590	 21.042910	 56.712280	 24.679660	 10.537940	-0.255808	-8.606009	 2.680726	-12.206080	-3.736809	-6.580301	 5.266122	 0.000000	 0.000000	 0.000000	 0.000000	 0.000000	 0.000000	 0.000000	 4.085541	-0.131687	-0.767608	 4.726777	 0.832197	-0.609867	 114.209300	-4.342679	-88.386180	-29.497180	 49.033630	-32.260830	-42.505270	-1.304530	 8.035071	-13.891870	-10.201970	 7.861581	-0.745700	 21.167410	 0.850577	 12.330760	 19.670480	-4.395668	-8.450709	 8.658298	-0.245390
 0.022717	 1.266131	 0.011366	-0.163983	 2.154369	 178.891400	-177.301100	 6.427363	-14.006590	 3.498923	-17.177980	 4.407628	-2.791815	 69.546050	 2.983426	 1.331492	 28.938720	-2.729976	 178.905200	 8.093632	 17.917520	-6.070381	-19.232710	-9.531635	-7.755294	 71.675380	 7.755240	-1.293801	 28.441880	 2.941231	-0.740131	 3.452263	 4.040783	-1.157389	 2.524135	 1.704094	-1.252344	 0.965800	-6.780403	-113.446500	 5.048135	 92.959170	 17.204280	 56.744450	 28.595550	 10.465430	-0.251364	-8.631402	 5.164505	-12.065440	 0.888258	-6.580301	 5.266122	 0.000000	 0.000000	 0.000000	 0.000000	 0.000000	 0.000000	 0.000000	 3.874576	-0.106762	-0.802170	 4.590228	 0.876490	-1.115727	 114.202700	-4.297339	-88.416400	-25.769790	 46.928030	-35.423000	-41.111270	-1.263100	 8.096289	-3.652103	-11.047000	 17.962850	-0.693119	 19.794650	 0.832179	 12.259160	 18.328650	-4.086380	-8.441597	 8.007262	-0.204311
 0.022911	 1.265985	 0.012577	-0.127017	 2.317814	 178.277900	-177.168900	 6.239401	-14.633090	 3.514688	-17.250720	 4.070528	-3.767715	 69.538490	 3.999571	 1.331492	 28.938720	-2.729976	 179.037000	 8.099899	 17.238480	-6.108098	-19.342950	-10.140770	-9.694198	 71.630260	 9.727211	-1.294884	 28.456130	 2.947304	-0.733534	 3.613548	 5.133345	-0.970836	 2.190586	 2.243615	-1.247865	 1.553572	-8.502860	-113.447700	 5.032532	 92.969000	 14.994040	 56.799370	 31.049840	 10.418620	-0.248544	-8.642891	 6.778595	-11.729350	 5.242489	-6.580301	 5.266122	 0.000000	 0.000000	 0.000000	 0.000000	 0.000000	 0.000000	 0.000000	 3.690509	-0.096401	-0.829203	 4.457924	 0.889270	-1.560087	 114.197000	-4.258079	-88.442950	-25.798630	 47.323900	-36.282810	-33.871280	-1.037027	 8.280527	 2.454748	-10.783430	 26.439350	-0.645809	 18.538920	 0.816647	 12.200780	 17.100910	-3.807020	-8.432734	 7.403422	-0.166172
 0.022978	 1.265962	 0.012801	-0.145336	 2.346153	 178.270100	-177.190000	 6.218710	-14.614820	 3.514256	-17.248720	 4.013741	-3.939714	 69.521590	 4.186191	 1.331492	 28.938720	-2.729976	 179.021300	 8.090796	 17.222570	-6.117952	-19.371720	-9.918198	-9.046655	 71.630950	 9.034588	-1.296589	 28.477470	 2.931139	-0.743511	 3.676340	 6.025979	-0.927030	 2.054557	 2.673410	-1.169553	 1.804198	-9.904901	-113.447800	 5.003105	 92.957620	 14.931950	 56.815380	 31.213420	 10.412500	-0.248286	-8.641566	 7.643711	-11.064310	 8.463840	-6.580301	 5.266122	 0.000000	 0.000000	 0.000000	 0.000000	 0.000000	 0.000000	 0.000000	 3.640716	-0.174088	-0.815183	 4.337024	 0.780905	-1.856346	 114.195600	-4.249701	-88.451350	-26.505180	 48.117050	-35.383460	-30.956590	-0.940310	 8.340587	 4.254031	-11.009820	 30.895070	-0.617960	 17.790990	 0.807964	 12.169140	 16.369530	-3.642113	-8.426429	 6.989167	-0.139976
